<?xml version="1.0" encoding="UTF-8"?>
<svg width="46px" height="46px" viewBox="0 0 29 40" version="1.1" xmlns="http://www.w3.org/2000/svg" xmlns:xlink="http://www.w3.org/1999/xlink">
    <!-- Generator: Sketch 63.1 (92452) - https://sketch.com -->
    <title>logo</title>
    <desc>Created with Sketch.</desc>
    <g id="Page-1" stroke="none" stroke-width="2.5" fill="none" fill-rule="evenodd">
        <g id="icon" transform="translate(-9.000000, -4.000000)" stroke="#979797">
            <path d="M20.7574803,16.3164835 C20.7574803,14.6879121 22.1181102,14.0615385 24.3716535,14.0615385 C27.6031496,14.0615385 31.6850394,15.021978 34.9165354,16.7340659 L34.9165354,6.92087912 C31.3874016,5.54285714 27.9007874,5 24.3716535,5 C15.7401575,5 10,9.42637363 10,16.8175824 C10,28.3428571 26.1574803,26.5054945 26.1574803,31.4747253 C26.1574803,33.3956044 24.4566929,34.021978 22.0755906,34.021978 C18.5464567,34.021978 14.0393701,32.6021978 10.4677165,30.6813187 L10.4677165,40.6197802 C14.4220472,42.2901099 18.4188976,43 22.0755906,43 C30.919685,43 37,38.6989011 37,31.2241758 C36.9574803,18.7802198 20.7574803,20.9934066 20.7574803,16.3164835 Z" id="logo"></path>
        </g>
    </g>
</svg>

