<?xml version="1.0" encoding="UTF-8"?>
<svg width="256px" height="256px" viewBox="0 0 256 256" version="1.1" xmlns="http://www.w3.org/2000/svg" xmlns:xlink="http://www.w3.org/1999/xlink">
    <!-- Generator: Sketch 63.1 (92452) - https://sketch.com -->
    <title>logo</title>
    <desc>Created with Sketch.</desc>
    <g id="Page-1" stroke="none" stroke-width="1" fill="none" fill-rule="evenodd">
        <g id="logo">
            <rect id="Rectangle" fill="#32325D" x="0" y="0" width="256" height="256"></rect>
            <g id="stripe" transform="translate(43.000000, 93.000000)" fill="#FFFFFF">
                <path d="M170,35.6655666 C170,23.5555556 164.158816,14 152.994616,14 C141.783311,14 135,23.5555556 135,35.5709571 C135,49.809681 143.008075,57 154.502019,57 C160.107672,57 164.347241,55.7227723 167.550471,53.9251925 L167.550471,44.4642464 C164.347241,46.0726073 160.672948,47.0660066 156.009421,47.0660066 C151.440108,47.0660066 147.388964,45.4576458 146.870794,39.8756876 L169.905787,39.8756876 C169.905787,39.2607261 170,36.8008801 170,35.6655666 Z M146.729475,31.1716172 C146.729475,25.8261826 149.979812,23.6028603 152.94751,23.6028603 C155.820996,23.6028603 158.882907,25.8261826 158.882907,31.1716172 L146.729475,31.1716172 Z" id="Shape"></path>
                <path d="M116.614286,15 C111.905195,15 108.877922,17.179357 107.196104,18.6954315 L106.571429,15.7580372 L96,15.7580372 L96,71 L108.012987,68.4890017 L108.061039,55.0812183 C109.790909,56.3130288 112.337662,58.0659898 116.566234,58.0659898 C125.167532,58.0659898 133,51.2436548 133,36.2250423 C132.951948,22.4856176 125.023377,15 116.614286,15 Z M113.731169,47.642978 C110.896104,47.642978 109.214286,46.6480541 108.061039,45.4162437 L108.012987,27.8392555 C109.262338,26.465313 110.992208,25.5177665 113.731169,25.5177665 C118.103896,25.5177665 121.131169,30.3502538 121.131169,36.5566836 C121.131169,42.9052453 118.151948,47.642978 113.731169,47.642978 Z" id="Shape"></path>
                <polygon id="Path" points="80 12 92 9.47859922 92 0 80 2.47470817"></polygon>
                <rect id="Rectangle" x="80" y="16" width="12" height="41"></rect>
                <path d="M68.0727273,19.0008915 L67.3090909,15.4903621 L57,15.4903621 L57,57 L68.9318182,57 L68.9318182,28.8683254 C71.7477273,25.2154773 76.5204545,25.8796315 78,26.4014669 L78,15.4903621 C76.4727273,14.9210871 70.8886364,13.8774162 68.0727273,19.0008915 Z" id="Path"></path>
                <path d="M43.8548387,5 L32.0483871,7.43603604 L32,44.9603604 C32,51.8936937 37.3709677,57 44.5322581,57 C48.5,57 51.4032258,56.2972973 53,55.4540541 L53,45.9441441 C51.4516129,46.5531532 43.8064516,48.7081081 43.8064516,41.7747748 L43.8064516,25.1441441 L53,25.1441441 L53,15.1657658 L43.8064516,15.1657658 L43.8548387,5 Z" id="Path"></path>
                <path d="M11.9527559,26.8054945 C11.9527559,24.9626374 13.4645669,24.2538462 15.9685039,24.2538462 C19.5590551,24.2538462 24.0944882,25.3406593 27.6850394,27.278022 L27.6850394,16.1736264 C23.7637795,14.6142857 19.8897638,14 15.9685039,14 C6.37795276,14 0,19.0087912 0,27.3725275 C0,40.4142857 17.9527559,38.3351648 17.9527559,43.9582418 C17.9527559,46.1318681 16.0629921,46.8406593 13.4173228,46.8406593 C9.49606299,46.8406593 4.48818898,45.2340659 0.519685039,43.0604396 L0.519685039,54.3065934 C4.91338583,56.1967033 9.35433071,57 13.4173228,57 C23.2440945,57 30,52.132967 30,43.6747253 C29.9527559,29.5934066 11.9527559,32.0978022 11.9527559,26.8054945 Z" id="Path"></path>
            </g>
        </g>
    </g>
</svg>