<?xml version="1.0" encoding="UTF-8"?>
<svg width="256px" height="256px" viewBox="0 0 256 256" version="1.1" xmlns="http://www.w3.org/2000/svg" xmlns:xlink="http://www.w3.org/1999/xlink">
    <!-- Generator: Sketch 63.1 (92452) - https://sketch.com -->
    <title>logo</title>
    <desc>Created with Sketch.</desc>
    <g id="Page-1" stroke="none" stroke-width="1" fill="none" fill-rule="evenodd">
        <g id="logo">
            <circle id="bg" fill="#555ABF" cx="128" cy="128" r="128"></circle>
            <g id="stripe" transform="translate(29.000000, 87.000000)" fill="#FFFFFF">
                <path d="M199,42.1925193 C199,28.1111111 192.15747,17 179.079408,17 C165.946164,17 158,28.1111111 158,42.0825083 C158,58.6391639 167.380888,67 180.845222,67 C187.411844,67 192.378197,65.5148515 196.130552,63.4246425 L196.130552,52.4235424 C192.378197,54.2937294 188.074024,55.4488449 182.611036,55.4488449 C177.258412,55.4488449 172.512786,53.5786579 171.905787,47.0880088 L198.889637,47.0880088 C198.889637,46.3729373 199,43.5126513 199,42.1925193 Z M171.740242,36.9669967 C171.740242,30.7513751 175.547779,28.1661166 179.024226,28.1661166 C182.39031,28.1661166 185.97712,30.7513751 185.97712,36.9669967 L171.740242,36.9669967 Z" id="Shape"></path>
                <path d="M136.957143,18 C131.484416,18 127.966234,20.5296108 126.011688,22.2893401 L125.285714,18.8798646 L113,18.8798646 L113,83 L126.961039,80.0854484 L127.016883,64.5228426 C129.027273,65.9526227 131.987013,67.9873096 136.901299,67.9873096 C146.897403,67.9873096 156,60.0685279 156,42.6362098 C155.944156,26.6886633 146.72987,18 136.957143,18 Z M133.606494,55.8891709 C130.311688,55.8891709 128.357143,54.7343486 127.016883,53.3045685 L126.961039,32.9027073 C128.412987,31.3079526 130.423377,30.2081218 133.606494,30.2081218 C138.688312,30.2081218 142.206494,35.8172589 142.206494,43.0211506 C142.206494,50.3900169 138.744156,55.8891709 133.606494,55.8891709 Z" id="Shape"></path>
                <polygon id="Path" points="94 14 108 11.0583658 108 0 94 2.88715953"></polygon>
                <rect id="Rectangle" x="94" y="19" width="14" height="48"></rect>
                <path d="M79.6545455,22.6677067 L78.7818182,18.5720891 L67,18.5720891 L67,67 L80.6363636,67 L80.6363636,34.179713 C83.8545455,29.9180568 89.3090909,30.6929034 91,31.3017114 L91,18.5720891 C89.2545455,17.9079349 82.8727273,16.6903189 79.6545455,22.6677067 Z" id="Path"></path>
                <path d="M51.5483871,6 L38.0552995,8.85765766 L38,52.8765766 C38,61.0099099 44.1382488,67 52.3225806,67 C56.8571429,67 60.1751152,66.1756757 62,65.1864865 L62,54.0306306 C60.2304147,54.745045 51.4930876,57.272973 51.4930876,49.1396396 L51.4930876,29.6306306 L62,29.6306306 L62,17.9252252 L51.4930876,17.9252252 L51.5483871,6 Z" id="Path"></path>
                <path d="M13.9448819,31.8901099 C13.9448819,29.7472527 15.7086614,28.9230769 18.6299213,28.9230769 C22.8188976,28.9230769 28.1102362,30.1868132 32.2992126,32.4395604 L32.2992126,19.5274725 C27.7244094,17.7142857 23.2047244,17 18.6299213,17 C7.44094488,17 0,22.8241758 0,32.5494505 C0,47.7142857 20.9448819,45.2967033 20.9448819,51.8351648 C20.9448819,54.3626374 18.7401575,55.1868132 15.6535433,55.1868132 C11.0787402,55.1868132 5.23622047,53.3186813 0.606299213,50.7912088 L0.606299213,63.8681319 C5.73228346,66.0659341 10.9133858,67 15.6535433,67 C27.1181102,67 35,61.3406593 35,51.5054945 C34.9448819,35.1318681 13.9448819,38.043956 13.9448819,31.8901099 Z" id="Path"></path>
            </g>
        </g>
    </g>
</svg>